<?xml version="1.0" standalone="no"?>
<!DOCTYPE svg PUBLIC "-//W3C//DTD SVG 20010904//EN"
 "http://www.w3.org/TR/2001/REC-SVG-20010904/DTD/svg10.dtd">
<svg version="1.0" xmlns="http://www.w3.org/2000/svg"
 width="700.000000pt" height="700.000000pt" viewBox="0 0 700.000000 700.000000"
 preserveAspectRatio="xMidYMid meet">
<metadata>
Created by potrace 1.14, written by Peter Selinger 2001-2017
</metadata>
<g transform="translate(0.000000,700.000000) scale(0.100000,-0.100000)"
fill="#000000" stroke="none">
<path d="M2872 6473 c-5 -10 -9 -62 -8 -116 0 -55 -2 -104 -6 -110 -5 -8 -80
-12 -240 -13 -128 -1 -239 -2 -245 -3 -10 -1 -13 -33 -13 -125 0 -69 -4 -127
-10 -131 -5 -3 -120 -7 -255 -8 -154 -1 -245 -6 -246 -12 -1 -5 -3 -58 -4
-118 -1 -59 -5 -110 -8 -113 -4 -4 -61 -7 -127 -7 -77 0 -123 -4 -128 -11 -4
-6 -7 -60 -8 -121 -1 -60 -2 -115 -3 -122 -1 -8 -35 -11 -112 -12 -61 0 -116
-4 -123 -10 -8 -7 -12 -42 -11 -108 1 -54 -2 -106 -7 -115 -7 -15 -26 -18
-126 -20 l-117 -3 -5 -255 -5 -255 -128 -3 c-90 -2 -127 -6 -129 -15 -1 -7 -2
-119 -3 -250 -1 -196 -4 -240 -16 -248 -7 -5 -65 -8 -127 -7 -62 0 -116 -2
-120 -6 -9 -10 -10 -1263 -1 -1278 5 -7 51 -12 128 -13 66 0 124 -4 128 -8 4
-4 6 -112 6 -240 0 -127 3 -237 8 -243 6 -7 53 -12 125 -12 64 0 120 -4 125
-9 9 -9 16 -252 8 -268 -4 -8 -4 -170 0 -227 1 -16 14 -18 121 -18 66 0 121
-3 121 -7 1 -5 3 -61 4 -126 1 -64 6 -122 11 -127 5 -5 61 -11 124 -12 l115
-3 3 -115 c1 -63 7 -119 11 -123 5 -5 61 -9 125 -9 99 0 118 -3 125 -17 5 -9
9 -61 9 -115 0 -58 5 -103 11 -109 8 -8 88 -11 249 -10 134 1 242 -3 248 -8 8
-6 12 -51 12 -125 0 -69 5 -121 11 -127 7 -7 88 -10 238 -9 126 1 234 -2 242
-7 11 -7 14 -34 12 -117 -1 -59 1 -116 5 -126 5 -17 34 -18 638 -18 495 0 636
3 643 13 5 6 9 63 9 125 -1 68 3 117 9 122 6 5 119 8 253 8 133 -1 245 2 249
6 4 4 8 61 8 127 1 87 5 123 14 129 7 4 121 8 254 8 145 1 243 5 246 11 4 5 6
54 5 108 0 54 3 106 8 116 8 15 24 17 123 17 102 0 115 2 117 18 1 9 2 55 4
102 1 47 2 95 3 108 1 22 3 22 125 22 89 0 127 4 133 13 4 6 8 62 9 123 0 61
4 116 8 122 5 8 44 12 115 12 70 0 111 4 119 12 9 9 12 79 12 254 0 140 4 245
9 249 6 3 62 6 126 6 74 1 118 5 123 13 4 6 7 116 7 244 0 177 3 235 13 241 7
4 58 7 113 5 77 -1 103 1 114 13 13 12 15 103 15 638 0 612 0 625 -20 635 -11
6 -65 10 -121 9 -68 -2 -103 1 -108 9 -4 7 -7 118 -7 248 1 130 -2 241 -6 247
-5 8 -47 13 -120 14 -62 0 -119 2 -125 2 -10 1 -13 58 -13 251 0 294 14 267
-142 265 -63 -1 -102 3 -104 9 -2 6 -6 58 -8 116 -2 58 -4 111 -5 118 -1 9
-34 12 -131 12 -97 0 -130 3 -131 13 -1 6 0 62 0 124 2 135 3 135 -126 130
-134 -6 -130 -10 -125 118 2 73 -1 111 -9 121 -10 12 -54 14 -252 14 -134 -1
-244 3 -249 8 -5 5 -10 64 -10 131 0 81 -4 122 -12 123 -6 1 -120 2 -253 2
-133 1 -244 4 -248 8 -4 4 -8 60 -9 125 l-1 118 -637 3 c-599 2 -638 1 -646
-15z"/>
</g>
</svg>
